<svg id="Calque_1" data-name="Calque 1" xmlns="http://www.w3.org/2000/svg" viewBox="0 0 193.73 165.73"><defs><style>.cls-1{fill:#fff;}.cls-2{fill:none;stroke:#fff;stroke-miterlimit:10;stroke-width:3px;}</style></defs><path class="cls-1" d="M-985.57,119.76c-3-2.29-4.47-6-4.47-11.46a11.35,11.35,0,0,1,1.23-5.42,11,11,0,0,1,3.65-4,22.41,22.41,0,0,1,7-3,41.56,41.56,0,0,1,10.29-1.17h10.6v29h-11.15c-7.91,0-13.68-1.34-17.15-4M-976,68.28a16,16,0,0,1-5.65-2.62,10.69,10.69,0,0,1-3.24-4,14.23,14.23,0,0,1-1.19-6.19,15.69,15.69,0,0,1,.78-5,6.5,6.5,0,0,1,2-2.91,14.25,14.25,0,0,1,5.19-2.51A36.72,36.72,0,0,1-968,44h10.78V69.27h-10.24a33.62,33.62,0,0,1-8.54-1m-34.41,16.51a32,32,0,0,0-6.39,10.07,34.27,34.27,0,0,0-2.35,12.89,39.28,39.28,0,0,0,4,17.85A37.3,37.3,0,0,0-1004,138.88a50.45,50.45,0,0,0,16.83,7.88,79.93,79.93,0,0,0,20.93,2.58h37.12v-131h-40c-37.83,0-45.77,19-45.77,34.93a35.2,35.2,0,0,0,5.6,19.88,27,27,0,0,0,5.62,6.14Z" transform="translate(1019.28 -16.56)"/><path class="cls-2" d="M-830.57,92.86v0a38.38,38.38,0,0,0-8.62-11.07,52.75,52.75,0,0,0-11.17-7.51c-3.63-1.82-7.38-3.53-11.16-5.06-3.54-1.44-7.07-2.86-10.5-4.23a47.67,47.67,0,0,1-7.57-3.75,15.19,15.19,0,0,1-3.94-3.4,2.41,2.41,0,0,1-.43-1.65,3.75,3.75,0,0,1,1.87-3.49c1.47-.74,10.85-2.51,19.94-2.51a74.14,74.14,0,0,1,11,.86,91.38,91.38,0,0,1,11.59,2.52l12.3,3.51V23.36l-7.38-1.78c-2-.49-4.17-.95-6.5-1.37s-4.58-.78-6.88-1.1-4.77-.59-7.07-.77-4.63-.28-6.7-.28c-7.87,0-21.81,1-28.15,3.08a47.17,47.17,0,0,0-15.82,8.6,35.9,35.9,0,0,0-9.83,13.12,37.29,37.29,0,0,0-3.12,14.81,33,33,0,0,0,3.57,15.56,37.34,37.34,0,0,0,8.68,10.92,53.27,53.27,0,0,0,11.13,7.34c3.61,1.79,7.35,3.47,11.1,5,3.47,1.41,7,2.84,10.5,4.23a49.92,49.92,0,0,1,7.64,3.75,15.07,15.07,0,0,1,3.92,3.32,2.32,2.32,0,0,1,.39,1.57,7.69,7.69,0,0,1-.58,3.2,3.82,3.82,0,0,1-1.36,1.46,14.69,14.69,0,0,1-4.87,1.86,47.85,47.85,0,0,1-10.09.89,95.64,95.64,0,0,1-16.06-1.2A67.72,67.72,0,0,1-907,112.37l-13-4.86v35.65l7.18,1.9c2.1.55,4.45,1.08,7,1.56s5.21.9,8,1.26,5.69.65,8.7.88,6.25.36,9.36.36A84.62,84.62,0,0,0-860,146.94a50.53,50.53,0,0,0,16.8-7.2,37.13,37.13,0,0,0,11.85-13.06A37.53,37.53,0,0,0-827,108.52a33.8,33.8,0,0,0-3.53-15.66" transform="translate(1019.28 -16.56)"/><path class="cls-1" d="M-1019.28,165.75h7.11c3.93,0,5.42,2.05,5.42,4.16a3.74,3.74,0,0,1-2.07,3.53,3.88,3.88,0,0,1,2.53,3.7c0,2.79-2.18,4.87-5.64,4.87h-7.35Zm6.7,6.41c1.67,0,2.36-.75,2.36-1.89s-.9-1.8-2.26-1.8h-3.35v3.69Zm-3.25,7.13h3.18c1.9,0,2.76-.79,2.76-2.26,0-1.31-.85-2.15-2.78-2.15h-3.16Zm16.24-2c.37,1.64,1.55,2.35,3.43,2.35s2.68-.74,2.68-1.93-.79-1.9-3.57-2.54c-4.42-1-5.52-2.65-5.52-4.85,0-2.83,2.12-4.75,6-4.75,4.32,0,6,2.32,6.27,4.69h-3.54c-.17-1-.72-2.08-2.82-2.08-1.43,0-2.29.59-2.29,1.74s.69,1.59,3.32,2.2c4.73,1.11,5.77,2.87,5.77,5.16,0,3-2.25,5-6.55,5-4.13,0-6.3-2-6.69-5Z" transform="translate(1019.28 -16.56)"/><path class="cls-1" d="M-965.3,175.91c0-2.77,0-5.88.11-7.72h-.11c-.76,3.32-2.39,8.73-4,13.82h-3c-1.19-4.45-2.87-10.62-3.58-13.86h-.11c.14,1.9.2,5.25.2,8V182h-3.2V165.75h5.23c1.27,4.25,2.69,9.58,3.18,12h0c.39-2.13,2.18-7.83,3.54-12h5V182h-3.39ZM-947,182h-3.32c0-.33-.07-1-.09-1.41a3.47,3.47,0,0,1-3.36,1.69c-2.49,0-4.07-1.51-4.07-4.54V169.8h3.37v7.28c0,1.35.42,2.46,1.88,2.46s2.18-.82,2.18-3.24v-6.5H-947v8.66C-947,179.64-947,180.92-947,182Zm4.2,0V164.8h3.37V182Zm8.31-12.21v-3.3h3.38v3.3h2.39v2.54h-2.39v6c0,.92.28,1.29,1.29,1.29a7.63,7.63,0,0,0,.77,0v2.32a7.63,7.63,0,0,1-2.28.24c-2.38,0-3.16-1.28-3.16-3.41v-6.43h-1.89V169.8Zm8.83-5h3.38v3h-3.38Zm0,5h3.38V182h-3.38Z" transform="translate(1019.28 -16.56)"/><path class="cls-1" d="M-914.14,168.63h-4.94v-2.88h13.38v2.88h-4.92V182h-3.52Zm10,4.48c0-1.21,0-2.29,0-3.31h3.31c.05.28.09,1.49.09,2.15a3.91,3.91,0,0,1,3.92-2.43v3.23c-2.45-.07-3.92.59-3.92,3.94V182h-3.38Zm20.2,5.75a27.87,27.87,0,0,0,.16,3.15H-887a5.42,5.42,0,0,1-.17-1.19c-.44.68-1.27,1.47-3.43,1.47-2.94,0-4.18-1.93-4.18-3.83,0-2.78,2.23-4.06,5.81-4.06h1.74v-.74c0-.87-.31-1.73-1.88-1.73s-1.74.61-1.89,1.49h-3.22c.18-2.16,1.53-3.92,5.24-3.9,3.27,0,5.05,1.3,5.05,4.2Zm-3.3-2.41h-1.37c-2,0-2.8.62-2.8,1.8a1.57,1.57,0,0,0,1.76,1.63c2.15,0,2.41-1.49,2.41-3.11Zm9.54-6.65c1.16,4.14,2.13,7.75,2.37,9.22h0c.34-2,1.53-5.69,2.6-9.22h3.36L-873.64,182h-3.55l-4.14-12.21Zm21,9.06a27.87,27.87,0,0,0,.16,3.15h-3.23a5.42,5.42,0,0,1-.17-1.19c-.44.68-1.27,1.47-3.43,1.47-2.94,0-4.18-1.93-4.18-3.83,0-2.78,2.23-4.06,5.81-4.06H-860v-.74c0-.87-.31-1.73-1.88-1.73s-1.74.61-1.89,1.49H-867c.19-2.16,1.53-3.92,5.24-3.9,3.27,0,5,1.3,5,4.2Zm-3.3-2.41h-1.37c-2,0-2.79.62-2.79,1.8a1.56,1.56,0,0,0,1.75,1.63c2.15,0,2.41-1.49,2.41-3.11Zm18.24,5.56h-3.31c0-.33-.07-1-.09-1.41a3.49,3.49,0,0,1-3.37,1.69c-2.48,0-4.07-1.51-4.07-4.54V169.8h3.38v7.28c0,1.35.41,2.46,1.88,2.46s2.18-.82,2.18-3.24v-6.5h3.37v8.66C-841.81,179.64-841.8,180.92-841.78,182Zm6.54-12.21c1.27,2.3,1.79,3.2,2.16,3.83h0c.42-.74,1.17-2.09,2.16-3.83h3.75l-4,5.81,4,6.4H-831c-1.09-2.07-1.78-3.4-2.14-4.1h0c-.32.64-1.16,2.22-2.16,4.1H-839l3.78-5.95L-839,169.8Z" transform="translate(1019.28 -16.56)"/></svg>